<mxfile host="app.diagrams.net" modified="2023-06-26T04:03:50.749Z" agent="Mozilla/5.0 (Windows NT 10.0; Win64; x64) AppleWebKit/537.36 (KHTML, like Gecko) Chrome/114.0.0.0 Safari/537.36" etag="IQMU0vlKBVzM4YdOowgz" version="21.5.0" type="device">
  <diagram name="第 1 页" id="EWQGLiX6Cm66f4qAmHdH">
    <mxGraphModel dx="545" dy="305" grid="1" gridSize="10" guides="1" tooltips="1" connect="1" arrows="1" fold="1" page="1" pageScale="1" pageWidth="827" pageHeight="1169" background="#FFFFFF" math="0" shadow="0">
      <root>
        <mxCell id="0" />
        <mxCell id="1" parent="0" />
        <mxCell id="7XxlrbocILE5hHtDeExq-20" value="" style="rounded=0;whiteSpace=wrap;html=1;fillColor=none;strokeWidth=2;strokeColor=#a3a3a3;dashed=1;dashPattern=8 8;" parent="1" vertex="1">
          <mxGeometry x="200" y="380" width="430" height="260" as="geometry" />
        </mxCell>
        <mxCell id="7XxlrbocILE5hHtDeExq-11" value="" style="group" parent="1" vertex="1" connectable="0">
          <mxGeometry x="480" y="520" width="105" height="88" as="geometry" />
        </mxCell>
        <mxCell id="7XxlrbocILE5hHtDeExq-7" value="" style="shape=cylinder3;whiteSpace=wrap;html=1;boundedLbl=1;backgroundOutline=1;size=15;fillColor=none;strokeWidth=3;strokeColor=#FF6666;" parent="7XxlrbocILE5hHtDeExq-11" vertex="1">
          <mxGeometry width="105" height="88" as="geometry" />
        </mxCell>
        <mxCell id="7XxlrbocILE5hHtDeExq-5" value="&lt;font style=&quot;font-size: 16px;&quot; color=&quot;#ffffff&quot;&gt;Redis&lt;/font&gt;" style="rounded=1;whiteSpace=wrap;html=1;fillColor=#e3706b;strokeColor=none;" parent="7XxlrbocILE5hHtDeExq-11" vertex="1">
          <mxGeometry x="7.5" y="34" width="90" height="30" as="geometry" />
        </mxCell>
        <mxCell id="7XxlrbocILE5hHtDeExq-6" value="&lt;font color=&quot;#030303&quot;&gt;flight-redis&lt;/font&gt;" style="text;html=1;strokeColor=none;fillColor=none;align=center;verticalAlign=middle;whiteSpace=wrap;rounded=0;" parent="7XxlrbocILE5hHtDeExq-11" vertex="1">
          <mxGeometry x="17.5" y="63" width="70" height="20" as="geometry" />
        </mxCell>
        <mxCell id="7XxlrbocILE5hHtDeExq-12" value="" style="group" parent="1" vertex="1" connectable="0">
          <mxGeometry x="300" y="520" width="105" height="88" as="geometry" />
        </mxCell>
        <mxCell id="7XxlrbocILE5hHtDeExq-8" value="" style="shape=cylinder3;whiteSpace=wrap;html=1;boundedLbl=1;backgroundOutline=1;size=15;fillColor=none;strokeWidth=3;strokeColor=#82b366;" parent="7XxlrbocILE5hHtDeExq-12" vertex="1">
          <mxGeometry width="105" height="88" as="geometry" />
        </mxCell>
        <mxCell id="7XxlrbocILE5hHtDeExq-9" value="&lt;font style=&quot;font-size: 16px;&quot; color=&quot;#ffffff&quot;&gt;MySQL&lt;/font&gt;" style="rounded=1;whiteSpace=wrap;html=1;fillColor=#8fb16f;strokeColor=none;" parent="7XxlrbocILE5hHtDeExq-12" vertex="1">
          <mxGeometry x="7.5" y="34" width="90" height="30" as="geometry" />
        </mxCell>
        <mxCell id="7XxlrbocILE5hHtDeExq-10" value="&lt;font color=&quot;#030303&quot;&gt;flight-mysql&lt;/font&gt;" style="text;html=1;strokeColor=none;fillColor=none;align=center;verticalAlign=middle;whiteSpace=wrap;rounded=0;" parent="7XxlrbocILE5hHtDeExq-12" vertex="1">
          <mxGeometry x="17.5" y="63" width="70" height="20" as="geometry" />
        </mxCell>
        <mxCell id="7XxlrbocILE5hHtDeExq-13" value="" style="group" parent="1" vertex="1" connectable="0">
          <mxGeometry x="374" y="430" width="136" height="70" as="geometry" />
        </mxCell>
        <mxCell id="7XxlrbocILE5hHtDeExq-1" value="" style="rounded=0;whiteSpace=wrap;html=1;fillColor=none;strokeColor=#6c8ebf;strokeWidth=3;" parent="7XxlrbocILE5hHtDeExq-13" vertex="1">
          <mxGeometry width="136" height="70" as="geometry" />
        </mxCell>
        <mxCell id="7XxlrbocILE5hHtDeExq-2" value="&lt;font style=&quot;font-size: 16px;&quot; color=&quot;#ffffff&quot;&gt;Express&lt;/font&gt;" style="rounded=1;whiteSpace=wrap;html=1;fillColor=#7392C7;strokeColor=none;" parent="7XxlrbocILE5hHtDeExq-13" vertex="1">
          <mxGeometry x="24.285714285714285" y="10" width="87.42857142857143" height="30" as="geometry" />
        </mxCell>
        <mxCell id="7XxlrbocILE5hHtDeExq-3" value="&lt;font color=&quot;#030303&quot;&gt;flight-api-server&lt;/font&gt;" style="text;html=1;strokeColor=none;fillColor=none;align=center;verticalAlign=middle;whiteSpace=wrap;rounded=0;" parent="7XxlrbocILE5hHtDeExq-13" vertex="1">
          <mxGeometry x="19.428571428571427" y="42" width="97.14285714285714" height="20" as="geometry" />
        </mxCell>
        <mxCell id="7XxlrbocILE5hHtDeExq-14" value="" style="endArrow=classic;startArrow=classic;html=1;rounded=0;strokeColor=#000000;entryX=0;entryY=0.5;entryDx=0;entryDy=0;exitX=0.5;exitY=0;exitDx=0;exitDy=0;exitPerimeter=0;" parent="1" source="7XxlrbocILE5hHtDeExq-8" target="7XxlrbocILE5hHtDeExq-1" edge="1">
          <mxGeometry width="50" height="50" relative="1" as="geometry">
            <mxPoint x="380" y="530" as="sourcePoint" />
            <mxPoint x="430" y="480" as="targetPoint" />
            <Array as="points">
              <mxPoint x="353" y="465" />
            </Array>
          </mxGeometry>
        </mxCell>
        <mxCell id="7XxlrbocILE5hHtDeExq-15" value="" style="endArrow=classic;startArrow=classic;html=1;rounded=0;strokeColor=#000000;entryX=1;entryY=0.5;entryDx=0;entryDy=0;exitX=0.5;exitY=0;exitDx=0;exitDy=0;exitPerimeter=0;" parent="1" source="7XxlrbocILE5hHtDeExq-7" target="7XxlrbocILE5hHtDeExq-1" edge="1">
          <mxGeometry width="50" height="50" relative="1" as="geometry">
            <mxPoint x="531.5" y="515" as="sourcePoint" />
            <mxPoint x="553.5" y="460" as="targetPoint" />
            <Array as="points">
              <mxPoint x="533" y="465" />
            </Array>
          </mxGeometry>
        </mxCell>
        <mxCell id="7XxlrbocILE5hHtDeExq-16" value="&lt;font style=&quot;font-size: 12px;&quot; color=&quot;#000000&quot;&gt;port 3306&lt;/font&gt;" style="text;html=1;strokeColor=none;fillColor=none;align=center;verticalAlign=middle;whiteSpace=wrap;rounded=0;" parent="1" vertex="1">
          <mxGeometry x="290" y="490" width="60" height="30" as="geometry" />
        </mxCell>
        <mxCell id="7XxlrbocILE5hHtDeExq-17" value="&lt;font style=&quot;font-size: 12px;&quot; color=&quot;#000000&quot;&gt;port 6379&lt;/font&gt;" style="text;html=1;strokeColor=none;fillColor=none;align=center;verticalAlign=middle;whiteSpace=wrap;rounded=0;" parent="1" vertex="1">
          <mxGeometry x="540" y="490" width="60" height="30" as="geometry" />
        </mxCell>
        <mxCell id="7XxlrbocILE5hHtDeExq-19" value="&lt;font style=&quot;font-size: 12px;&quot; color=&quot;#000000&quot;&gt;port 80&lt;/font&gt;" style="text;html=1;strokeColor=none;fillColor=none;align=center;verticalAlign=middle;whiteSpace=wrap;rounded=0;" parent="1" vertex="1">
          <mxGeometry x="444" y="400" width="60" height="30" as="geometry" />
        </mxCell>
        <mxCell id="7XxlrbocILE5hHtDeExq-21" value="GCE &lt;font style=&quot;font-size: 11px;&quot;&gt;(Google Compute Engine)&lt;/font&gt;&amp;nbsp;&amp;nbsp;" style="rounded=1;whiteSpace=wrap;html=1;arcSize=17;fillColor=#A3A3A3;strokeColor=none;" parent="1" vertex="1">
          <mxGeometry x="200" y="380" width="180" height="30" as="geometry" />
        </mxCell>
        <mxCell id="7XxlrbocILE5hHtDeExq-22" value="&lt;font style=&quot;font-size: 10px;&quot; color=&quot;#030303&quot;&gt;(Run Docker-Compose)&lt;/font&gt;" style="text;html=1;strokeColor=none;fillColor=none;align=center;verticalAlign=middle;whiteSpace=wrap;rounded=0;" parent="1" vertex="1">
          <mxGeometry x="210" y="410" width="130" height="20" as="geometry" />
        </mxCell>
        <mxCell id="7XxlrbocILE5hHtDeExq-23" value="&lt;font color=&quot;#000000&quot; style=&quot;font-size: 16px;&quot;&gt;Client&lt;/font&gt;" style="rounded=0;whiteSpace=wrap;html=1;fillColor=#d0cee2;strokeColor=#6B6B6B;strokeWidth=2;" parent="1" vertex="1">
          <mxGeometry x="294" y="160" width="120" height="60" as="geometry" />
        </mxCell>
        <mxCell id="7XxlrbocILE5hHtDeExq-24" value="&lt;font color=&quot;#000000&quot; style=&quot;font-size: 16px;&quot;&gt;Google DNS&lt;/font&gt;" style="rounded=0;whiteSpace=wrap;html=1;fillColor=none;strokeColor=#C3C74E;strokeWidth=3;" parent="1" vertex="1">
          <mxGeometry x="294" y="280" width="120" height="60" as="geometry" />
        </mxCell>
        <mxCell id="7XxlrbocILE5hHtDeExq-25" value="" style="endArrow=classic;startArrow=classic;html=1;rounded=0;strokeColor=#000000;exitX=0.5;exitY=0;exitDx=0;exitDy=0;entryX=1;entryY=0.5;entryDx=0;entryDy=0;" parent="1" source="7XxlrbocILE5hHtDeExq-1" target="7XxlrbocILE5hHtDeExq-24" edge="1">
          <mxGeometry width="50" height="50" relative="1" as="geometry">
            <mxPoint x="420" y="380" as="sourcePoint" />
            <mxPoint x="470" y="320" as="targetPoint" />
            <Array as="points">
              <mxPoint x="442" y="310" />
            </Array>
          </mxGeometry>
        </mxCell>
        <mxCell id="7XxlrbocILE5hHtDeExq-26" value="&lt;font style=&quot;font-size: 12px;&quot; color=&quot;#000000&quot;&gt;External IP: X.X.X.X&lt;/font&gt;" style="text;html=1;strokeColor=none;fillColor=none;align=center;verticalAlign=middle;whiteSpace=wrap;rounded=0;" parent="1" vertex="1">
          <mxGeometry x="444" y="340" width="86" height="30" as="geometry" />
        </mxCell>
        <mxCell id="7XxlrbocILE5hHtDeExq-27" value="" style="endArrow=classic;startArrow=classic;html=1;rounded=0;entryX=0.5;entryY=1;entryDx=0;entryDy=0;exitX=0.5;exitY=0;exitDx=0;exitDy=0;strokeColor=#080808;" parent="1" source="7XxlrbocILE5hHtDeExq-24" target="7XxlrbocILE5hHtDeExq-23" edge="1">
          <mxGeometry width="50" height="50" relative="1" as="geometry">
            <mxPoint x="370" y="300" as="sourcePoint" />
            <mxPoint x="420" y="250" as="targetPoint" />
          </mxGeometry>
        </mxCell>
        <mxCell id="7XxlrbocILE5hHtDeExq-28" value="&lt;font style=&quot;font-size: 12px;&quot; color=&quot;#000000&quot;&gt;Domain: flight.remon-shen.site&lt;/font&gt;" style="text;html=1;strokeColor=none;fillColor=none;align=center;verticalAlign=middle;whiteSpace=wrap;rounded=0;" parent="1" vertex="1">
          <mxGeometry x="361" y="240" width="179" height="30" as="geometry" />
        </mxCell>
      </root>
    </mxGraphModel>
  </diagram>
</mxfile>
